<svg width="213" height="227" viewBox="0 0 213 227" fill="none" xmlns="http://www.w3.org/2000/svg">
<path d="M96.855 96.8369H114.254" stroke="black" stroke-width="2.45157"/>
<path d="M174.943 64.7326C179.953 64.8316 184.879 63.4428 189.1 60.7419C193.32 58.0409 196.645 54.1491 198.653 49.5586C200.662 44.9681 201.264 39.8851 200.384 34.9524C199.504 30.0196 198.25 23.3735 194.778 19.7611C191.305 16.1487 185.77 15.7323 180.876 14.6579C175.982 13.5834 170.879 13.9844 166.213 15.8101C161.546 17.6358 157.526 20.8042 154.661 24.9146C151.795 29.0251 150.213 33.8929 150.114 38.9026L175.443 39.4031L174.943 64.7326Z" fill="#FFE4AF"/>
<path d="M174.943 64.7326C179.953 64.8316 184.879 63.4428 189.1 60.7419C193.32 58.0409 196.645 54.1491 198.653 49.5586C200.662 44.9681 201.264 39.8851 200.384 34.9524C199.504 30.0196 198.25 23.3735 194.778 19.7611C191.305 16.1487 185.77 15.7323 180.876 14.6579C175.982 13.5834 170.879 13.9844 166.213 15.8101C161.546 17.6358 157.526 20.8042 154.661 24.9146C151.795 29.0251 150.213 33.8929 150.114 38.9026L175.443 39.4031L174.943 64.7326Z" fill="#FFDC99"/>
<path d="M61.7297 37.018C61.7642 32.0074 60.3121 27.0991 57.557 22.9138C54.802 18.7286 50.8677 15.4542 46.2517 13.5049C41.6357 11.5556 36.5454 11.0189 31.6244 11.9626C26.7033 12.9063 20.0739 14.2454 16.5065 17.764C12.9391 21.2827 12.594 26.8228 11.5827 31.7304C10.5714 36.6379 11.038 41.7352 12.9237 46.3775C14.8093 51.0199 18.0292 54.9988 22.1761 57.8112C26.3231 60.6236 31.211 62.1431 36.2215 62.1776L36.3958 36.8437L61.7297 37.018Z" fill="#FFE4AF"/>
<path d="M61.7297 37.018C61.7642 32.0074 60.3121 27.0991 57.557 22.9138C54.802 18.7286 50.8677 15.4542 46.2517 13.5049C41.6357 11.5556 36.5454 11.0189 31.6244 11.9626C26.7033 12.9063 20.0739 14.2454 16.5065 17.764C12.9391 21.2827 12.594 26.8228 11.5827 31.7304C10.5714 36.6379 11.038 41.7352 12.9237 46.3775C14.8093 51.0199 18.0292 54.9988 22.1761 57.8112C26.3231 60.6236 31.211 62.1431 36.2215 62.1776L36.3958 36.8437L61.7297 37.018Z" fill="#FFDC99"/>
<path d="M36.3739 147.771C31.3646 147.891 26.5034 149.494 22.4048 152.376C18.3063 155.259 15.1546 159.292 13.3482 163.966C11.5419 168.639 11.162 173.744 12.2567 178.633C13.3514 183.523 14.8939 190.108 18.5206 193.566C22.1473 197.023 27.6955 197.198 32.6318 198.057C37.5682 198.917 42.6487 198.294 47.2308 196.266C51.8129 194.239 55.6909 190.898 58.3744 186.666C61.0578 182.435 62.4262 177.503 62.3065 172.493L36.9792 173.099L36.3739 147.771Z" fill="#FFE4AF"/>
<path d="M36.3739 147.771C31.3646 147.891 26.5034 149.494 22.4048 152.376C18.3063 155.259 15.1546 159.292 13.3482 163.966C11.5419 168.639 11.162 173.744 12.2567 178.633C13.3514 183.523 14.8939 190.108 18.5206 193.566C22.1473 197.023 27.6955 197.198 32.6318 198.057C37.5682 198.917 42.6487 198.294 47.2308 196.266C51.8129 194.239 55.6909 190.898 58.3744 186.666C61.0578 182.435 62.4262 177.503 62.3065 172.493L36.9792 173.099L36.3739 147.771Z" fill="#FFDC99"/>
<path d="M147.689 171.334C147.596 176.344 148.99 181.269 151.696 185.487C154.401 189.704 158.297 193.024 162.89 195.028C167.483 197.031 172.566 197.627 177.498 196.742C182.43 195.856 189.074 194.595 192.683 191.118C196.291 187.642 196.701 182.106 197.77 177.21C198.839 172.315 198.432 167.213 196.601 162.549C194.77 157.884 191.598 153.868 187.484 151.007C183.37 148.146 178.501 146.569 173.491 146.476L173.019 171.806L147.689 171.334Z" fill="#FFE4AF"/>
<path d="M147.689 171.334C147.596 176.344 148.99 181.269 151.696 185.487C154.401 189.704 158.297 193.024 162.89 195.028C167.483 197.031 172.566 197.627 177.498 196.742C182.43 195.856 189.074 194.595 192.683 191.118C196.291 187.642 196.701 182.106 197.77 177.21C198.839 172.315 198.432 167.213 196.601 162.549C194.77 157.884 191.598 153.868 187.484 151.007C183.37 148.146 178.501 146.569 173.491 146.476L173.019 171.806L147.689 171.334Z" fill="#FFDC99"/>
<path d="M90.6085 38.3723C90.5571 32.7198 88.2624 27.3193 84.2291 23.3587C80.1959 19.3982 74.7545 17.202 69.1021 17.2534C63.4496 17.3048 58.0491 19.5995 54.0885 23.6328C50.128 27.666 47.9318 33.1074 47.9832 38.7598L69.2959 38.566L90.6085 38.3723Z" fill="#FFE4AF"/>
<path d="M90.6085 38.3723C90.5571 32.7198 88.2624 27.3193 84.2291 23.3587C80.1959 19.3982 74.7545 17.202 69.1021 17.2534C63.4496 17.3048 58.0491 19.5995 54.0885 23.6328C50.128 27.666 47.9318 33.1074 47.9832 38.7598L69.2959 38.566L90.6085 38.3723Z" fill="#FFDC99"/>
<path d="M165.237 38.3723C165.186 32.7198 162.891 27.3193 158.858 23.3587C154.825 19.3982 149.383 17.202 143.731 17.2534C138.079 17.3048 132.678 19.5995 128.717 23.6328C124.757 27.666 122.561 33.1074 122.612 38.7598L143.925 38.566L165.237 38.3723Z" fill="#FFE4AF"/>
<path d="M165.237 38.3723C165.186 32.7198 162.891 27.3193 158.858 23.3587C154.825 19.3982 149.383 17.202 143.731 17.2534C138.079 17.3048 132.678 19.5995 128.717 23.6328C124.757 27.666 122.561 33.1074 122.612 38.7598L143.925 38.566L165.237 38.3723Z" fill="#FFDC99"/>
<path d="M129.504 36.1511C129.452 30.0827 126.991 24.2859 122.662 20.0361C118.332 15.7862 112.686 10.9166 106.615 10.9749C100.545 11.0332 94.5474 16.0147 90.2917 20.347C86.036 24.6793 83.6744 30.5224 83.7264 36.5909L106.615 36.371L129.504 36.1511Z" fill="#FFE4AF"/>
<path d="M129.504 36.1511C129.452 30.0827 126.991 24.2859 122.662 20.0361C118.332 15.7862 112.686 10.9166 106.615 10.9749C100.545 11.0332 94.5474 16.0147 90.2917 20.347C86.036 24.6793 83.6744 30.5224 83.7264 36.5909L106.615 36.371L129.504 36.1511Z" fill="#FFDC99"/>
<path d="M170.951 90.5607C176.603 90.5667 182.027 88.3269 186.028 84.3341C190.03 80.3413 192.281 74.9225 192.287 69.2698C192.293 63.6171 190.053 58.1936 186.06 54.1923C182.068 50.191 176.649 47.9397 170.996 47.9337L170.973 69.2472L170.951 90.5607Z" fill="#FFE4AF"/>
<path d="M170.951 90.5607C176.603 90.5667 182.027 88.3269 186.028 84.3341C190.03 80.3413 192.281 74.9225 192.287 69.2698C192.293 63.6171 190.053 58.1936 186.06 54.1923C182.068 50.191 176.649 47.9397 170.996 47.9337L170.973 69.2472L170.951 90.5607Z" fill="#FFDC99"/>
<path d="M174.583 165.19C180.236 165.196 185.659 162.956 189.661 158.963C193.662 154.97 195.913 149.551 195.919 143.899C195.925 138.246 193.685 132.822 189.693 128.821C185.7 124.82 180.281 122.569 174.628 122.563L174.606 143.876L174.583 165.19Z" fill="#FFE4AF"/>
<path d="M174.583 165.19C180.236 165.196 185.659 162.956 189.661 158.963C193.662 154.97 195.913 149.551 195.919 143.899C195.925 138.246 193.685 132.822 189.693 128.821C185.7 124.82 180.281 122.569 174.628 122.563L174.606 143.876L174.583 165.19Z" fill="#FFDC99"/>
<path d="M172.777 129.477C178.846 129.487 184.667 127.085 188.961 122.799C193.254 118.513 197.544 112.658 197.548 106.587C197.551 100.517 193.268 94.7267 188.979 90.4272C184.69 86.1277 178.871 83.7069 172.802 83.6974L172.79 106.587L172.777 129.477Z" fill="#FFE4AF"/>
<path d="M172.777 129.477C178.846 129.487 184.667 127.085 188.961 122.799C193.254 118.513 197.544 112.658 197.548 106.587C197.551 100.517 193.268 94.7267 188.979 90.4272C184.69 86.1277 178.871 83.7069 172.802 83.6974L172.79 106.587L172.777 129.477Z" fill="#FFDC99"/>
<path d="M38.2497 122.582C32.597 122.601 27.1832 124.864 23.1993 128.874C19.2153 132.884 16.9876 138.313 17.0061 143.966C17.0246 149.618 19.2878 155.032 23.298 159.016C27.3081 163 32.7366 165.228 38.3892 165.209L38.3195 143.896L38.2497 122.582Z" fill="#FFE4AF"/>
<path d="M38.2497 122.582C32.597 122.601 27.1832 124.864 23.1993 128.874C19.2153 132.884 16.9876 138.313 17.0061 143.966C17.0246 149.618 19.2878 155.032 23.298 159.016C27.3081 163 32.7366 165.228 38.3892 165.209L38.3195 143.896L38.2497 122.582Z" fill="#FFDC99"/>
<path d="M38.6838 47.9547C33.0311 47.9732 27.6173 50.2365 23.6334 54.2466C19.6494 58.2568 17.4217 63.6852 17.4402 69.3379C17.4587 74.9906 19.7219 80.4044 23.732 84.3883C27.7422 88.3723 33.1707 90.6 38.8233 90.5815L38.7536 69.2681L38.6838 47.9547Z" fill="#FFE4AF"/>
<path d="M38.6838 47.9547C33.0311 47.9732 27.6173 50.2365 23.6334 54.2466C19.6494 58.2568 17.4217 63.6852 17.4402 69.3379C17.4587 74.9906 19.7219 80.4044 23.732 84.3883C27.7422 88.3723 33.1707 90.6 38.8233 90.5815L38.7536 69.2681L38.6838 47.9547Z" fill="#FFDC99"/>
<path d="M36.255 83.6739C30.1863 83.6907 24.3753 86.1183 20.1003 90.4229C15.8254 94.7274 10.952 100.493 10.975 106.564C10.998 112.635 15.9154 118.513 20.2229 122.794C24.5304 127.075 30.3596 129.47 36.4283 129.454L36.3416 106.564L36.255 83.6739Z" fill="#FFE4AF"/>
<path d="M36.255 83.6739C30.1863 83.6907 24.3753 86.1183 20.1003 90.4229C15.8254 94.7274 10.952 100.493 10.975 106.564C10.998 112.635 15.9154 118.513 20.2229 122.794C24.5304 127.075 30.3596 129.47 36.4283 129.454L36.3416 106.564L36.255 83.6739Z" fill="#FFDC99"/>
<path d="M122.568 170.868C122.572 176.52 124.821 181.94 128.821 185.934C132.821 189.929 138.243 192.171 143.896 192.167C149.549 192.163 154.968 189.914 158.963 185.914C162.957 181.915 165.199 176.492 165.195 170.839L143.882 170.853L122.568 170.868Z" fill="#FFE4AF"/>
<path d="M122.568 170.868C122.572 176.52 124.821 181.94 128.821 185.934C132.821 189.929 138.243 192.171 143.896 192.167C149.549 192.163 154.968 189.914 158.963 185.914C162.957 181.915 165.199 176.492 165.195 170.839L143.882 170.853L122.568 170.868Z" fill="#FFDC99"/>
<path d="M47.9423 174.628C47.9461 180.281 50.1952 185.701 54.1949 189.695C58.1946 193.689 63.6173 195.931 69.27 195.928C74.9226 195.924 80.3423 193.675 84.3367 189.675C88.3312 185.675 90.5731 180.253 90.5694 174.6L69.2559 174.614L47.9423 174.628Z" fill="#FFE4AF"/>
<path d="M47.9423 174.628C47.9461 180.281 50.1952 185.701 54.1949 189.695C58.1946 193.689 63.6173 195.931 69.27 195.928C74.9226 195.924 80.3423 193.675 84.3367 189.675C88.3312 185.675 90.5731 180.253 90.5694 174.6L69.2559 174.614L47.9423 174.628Z" fill="#FFDC99"/>
<path d="M83.655 172.761C83.6559 178.829 86.0684 184.647 90.3617 188.933C94.6551 193.219 100.474 199.75 106.545 199.742C112.616 199.735 118.441 193.191 122.733 188.895C127.025 184.599 129.436 178.776 129.435 172.707L106.545 172.734L83.655 172.761Z" fill="#FFE4AF"/>
<path d="M83.655 172.761C83.6559 178.829 86.0684 184.647 90.3617 188.933C94.6551 193.219 100.474 199.75 106.545 199.742C112.616 199.735 118.441 193.191 122.733 188.895C127.025 184.599 129.436 178.776 129.435 172.707L106.545 172.734L83.655 172.761Z" fill="#FFDC99"/>
<rect x="37.3146" y="37.3145" width="136.088" height="136.088" stroke="#FFCE6F" stroke-width="4.38994"/>
<circle cx="78.4504" cy="98.0627" r="18.3868" stroke="black" stroke-width="2.45157"/>
<circle cx="132.385" cy="98.0627" r="18.3868" stroke="black" stroke-width="2.45157"/>
<path d="M103.736 122.528C102.555 121.238 99.5012 118.956 99.5715 117.348C99.6417 115.74 103.799 112.459 104.479 111" stroke="black" stroke-width="2.45157"/>
<path d="M27.3315 94.1058C23.5709 94.1058 18.5257 99.119 15.9539 101.691C13.7924 103.852 12.4907 106.681 10.6444 109.107C6.6678 114.334 4.10625 122.34 3.81786 128.828C3.68469 131.825 0.90811 148.718 4.57636 148.718" stroke="black" stroke-width="4" stroke-linecap="round"/>
<path d="M183.583 105.483C184.205 104.033 188.407 107.213 188.935 108.18C191.547 112.969 194.825 117.207 197.236 122.17C200.684 129.27 201.029 138.619 201.029 146.443" stroke="black" stroke-width="4" stroke-linecap="round"/>
<path d="M72.7369 183.982C72.7369 190.448 72.7369 196.914 72.7369 203.38C72.7369 207.02 73.0001 210.812 72.7206 214.446C72.4956 217.371 72.9852 220.748 69.7589 221.931C67.4067 222.794 65.1626 223.783 62.6151 223.819C61.9717 223.828 60.1625 223.484 59.8486 224.112" stroke="black" stroke-width="4" stroke-linecap="round"/>
<path d="M153.874 180.468C153.874 186.586 153.874 192.705 153.874 198.824C153.874 202.993 154.266 207.677 153.419 211.793C152.945 214.093 153.248 216.261 151.075 217.652C149.056 218.944 146.289 219.425 143.915 219.425" stroke="black" stroke-width="4" stroke-linecap="round"/>
<path d="M104.001 131.736C108.163 131.736 112.25 132.328 115.797 129.89C116.729 129.249 117.826 128.114 118.214 127.047C118.488 126.292 118.721 125.474 119.089 124.739" stroke="black" stroke-width="3.5" stroke-linecap="round"/>
<path d="M70.7402 106.38C70.7402 104.642 71.9611 103.699 73.0408 102.48C74.453 100.884 76.5153 100.395 78.5674 100.395C79.7521 100.395 80.7311 100.468 81.8385 100.943C82.6484 101.29 83.2525 101.681 83.8694 102.318C84.4675 102.935 84.7943 103.754 85.2623 104.457C85.3621 104.606 85.6288 105.307 85.7027 105.086" stroke="black" stroke-width="3.5" stroke-linecap="round"/>
<path d="M125.738 107.431C125.738 106.676 125.676 105.85 125.998 105.148C126.32 104.447 127.038 103.899 127.58 103.369C128.943 102.037 131.061 101.409 132.918 101.221C134.689 101.042 136.012 101.847 136.899 103.324C137.331 104.044 137.816 104.7 138.193 105.454C138.28 105.628 138.368 105.83 138.471 105.993C138.632 106.249 138.678 106.252 138.355 106.299" stroke="black" stroke-width="3.5" stroke-linecap="round"/>
<path d="M199.368 147.881C200.18 147.881 201.265 148.171 201.476 149.123C201.709 150.169 200.597 148.945 200.255 148.945C199.171 148.945 203.46 148.597 202.126 149.93C201.922 150.135 200.538 150.114 200.452 149.812C200.171 148.831 201.321 148.76 201.122 149.458C201.035 149.76 199.652 149.78 199.447 149.576C199.2 149.329 201.012 148.945 200.432 148.945" stroke="black" stroke-width="5" stroke-linecap="round"/>
<path d="M3.96505 148.591C3.96505 152.2 7.39484 146.825 4.87133 147.546C1.84176 148.412 5.53206 151.115 5.38358 148.591C5.31267 147.385 0.427658 150.364 4.497 150.364C5.28613 150.364 5.90409 148.914 5.30477 148.315C4.991 148.001 3.71698 148.945 3.25578 148.945" stroke="black" stroke-width="5" stroke-linecap="round"/>
</svg>
