<svg width="152" height="150" viewBox="0 0 152 150" fill="none" xmlns="http://www.w3.org/2000/svg">
<path d="M65.1211 65.1089H76.8196" stroke="black" stroke-width="1.64832"/>
<path d="M117.624 43.5233C120.992 43.5898 124.305 42.6561 127.142 40.8401C129.98 39.0241 132.215 36.4074 133.566 33.321C134.916 30.2345 135.321 26.8169 134.729 23.5004C134.137 20.1838 133.295 15.7153 130.96 13.2865C128.625 10.8576 124.904 10.5777 121.613 9.85526C118.322 9.13287 114.891 9.40247 111.754 10.63C108.617 11.8575 105.914 13.9878 103.987 16.7515C102.06 19.5151 100.997 22.7881 100.93 26.1564L117.96 26.4928L117.624 43.5233Z" fill="#FFE4AF"/>
<path d="M117.624 43.5233C120.992 43.5898 124.305 42.6561 127.142 40.8401C129.98 39.0241 132.215 36.4074 133.566 33.321C134.916 30.2345 135.321 26.8169 134.729 23.5004C134.137 20.1838 133.295 15.7153 130.96 13.2865C128.625 10.8576 124.904 10.5777 121.613 9.85526C118.322 9.13287 114.891 9.40247 111.754 10.63C108.617 11.8575 105.914 13.9878 103.987 16.7515C102.06 19.5151 100.997 22.7881 100.93 26.1564L117.96 26.4928L117.624 43.5233Z" fill="#FFDC99"/>
<path d="M41.5043 24.8892C41.5275 21.5203 40.5511 18.2202 38.6988 15.4062C36.8464 12.5922 34.2011 10.3907 31.0976 9.08008C27.994 7.76945 24.5715 7.40857 21.2628 8.04307C17.9541 8.67758 13.4968 9.57794 11.0983 11.9437C8.6997 14.3095 8.46766 18.0344 7.78769 21.334C7.10772 24.6337 7.42148 28.0608 8.68928 31.1822C9.95709 34.3035 12.122 36.9787 14.9102 38.8697C17.6985 40.7606 20.9849 41.7822 24.3537 41.8054L24.4709 24.772L41.5043 24.8892Z" fill="#FFE4AF"/>
<path d="M41.5043 24.8892C41.5275 21.5203 40.5511 18.2202 38.6988 15.4062C36.8464 12.5922 34.2011 10.3907 31.0976 9.08008C27.994 7.76945 24.5715 7.40857 21.2628 8.04307C17.9541 8.67758 13.4968 9.57794 11.0983 11.9437C8.6997 14.3095 8.46766 18.0344 7.78769 21.334C7.10772 24.6337 7.42148 28.0608 8.68928 31.1822C9.95709 34.3035 12.122 36.9787 14.9102 38.8697C17.6985 40.7606 20.9849 41.7822 24.3537 41.8054L24.4709 24.772L41.5043 24.8892Z" fill="#FFDC99"/>
<path d="M24.4561 99.3549C21.0881 99.4354 17.8196 100.513 15.0639 102.451C12.3082 104.389 10.1891 107.101 8.97464 110.243C7.76013 113.386 7.50474 116.818 8.24075 120.105C8.97677 123.393 10.0139 127.82 12.4523 130.145C14.8908 132.469 18.6211 132.587 21.9401 133.165C25.2591 133.743 28.6749 133.324 31.7558 131.961C34.8366 130.597 37.444 128.351 39.2482 125.506C41.0524 122.661 41.9725 119.345 41.892 115.977L24.8631 116.384L24.4561 99.3549Z" fill="#FFE4AF"/>
<path d="M24.4561 99.3549C21.0881 99.4354 17.8196 100.513 15.0639 102.451C12.3082 104.389 10.1891 107.101 8.97464 110.243C7.76013 113.386 7.50474 116.818 8.24075 120.105C8.97677 123.393 10.0139 127.82 12.4523 130.145C14.8908 132.469 18.6211 132.587 21.9401 133.165C25.2591 133.743 28.6749 133.324 31.7558 131.961C34.8366 130.597 37.444 128.351 39.2482 125.506C41.0524 122.661 41.9725 119.345 41.892 115.977L24.8631 116.384L24.4561 99.3549Z" fill="#FFDC99"/>
<path d="M99.2995 115.198C99.2368 118.566 100.174 121.877 101.994 124.713C103.813 127.548 106.432 129.781 109.52 131.128C112.608 132.475 116.026 132.876 119.342 132.28C122.658 131.685 127.125 130.837 129.552 128.499C131.978 126.162 132.253 122.44 132.972 119.148C133.691 115.857 133.417 112.426 132.186 109.29C130.955 106.154 128.822 103.454 126.056 101.53C123.29 99.6068 120.016 98.5466 116.648 98.4839L116.33 115.515L99.2995 115.198Z" fill="#FFE4AF"/>
<path d="M99.2995 115.198C99.2368 118.566 100.174 121.877 101.994 124.713C103.813 127.548 106.432 129.781 109.52 131.128C112.608 132.475 116.026 132.876 119.342 132.28C122.658 131.685 127.125 130.837 129.552 128.499C131.978 126.162 132.253 122.44 132.972 119.148C133.691 115.857 133.417 112.426 132.186 109.29C130.955 106.154 128.822 103.454 126.056 101.53C123.29 99.6068 120.016 98.5466 116.648 98.4839L116.33 115.515L99.2995 115.198Z" fill="#FFDC99"/>
<path d="M60.9209 25.7997C60.8864 21.9992 59.3435 18.3682 56.6317 15.7053C53.92 13.0424 50.2615 11.5658 46.461 11.6003C42.6605 11.6349 39.0295 13.1778 36.3666 15.8895C33.7037 18.6013 32.2271 22.2598 32.2616 26.0603L46.5913 25.93L60.9209 25.7997Z" fill="#FFE4AF"/>
<path d="M60.9209 25.7997C60.8864 21.9992 59.3435 18.3682 56.6317 15.7053C53.92 13.0424 50.2615 11.5658 46.461 11.6003C42.6605 11.6349 39.0295 13.1778 36.3666 15.8895C33.7037 18.6013 32.2271 22.2598 32.2616 26.0603L46.5913 25.93L60.9209 25.7997Z" fill="#FFDC99"/>
<path d="M111.098 25.7997C111.064 21.9992 109.521 18.3682 106.809 15.7053C104.097 13.0424 100.439 11.5658 96.6382 11.6003C92.8378 11.6349 89.2067 13.1778 86.5438 15.8895C83.8809 18.6013 82.4043 22.2598 82.4389 26.0603L96.7685 25.93L111.098 25.7997Z" fill="#FFE4AF"/>
<path d="M111.098 25.7997C111.064 21.9992 109.521 18.3682 106.809 15.7053C104.097 13.0424 100.439 11.5658 96.6382 11.6003C92.8378 11.6349 89.2067 13.1778 86.5438 15.8895C83.8809 18.6013 82.4043 22.2598 82.4389 26.0603L96.7685 25.93L111.098 25.7997Z" fill="#FFDC99"/>
<path d="M87.073 24.3064C87.038 20.2263 85.3831 16.3288 82.4722 13.4714C79.5614 10.614 75.7651 7.33985 71.6835 7.37905C67.602 7.41826 63.5695 10.7676 60.7082 13.6804C57.8468 16.5933 56.259 20.5219 56.294 24.6021L71.6835 24.4543L87.073 24.3064Z" fill="#FFE4AF"/>
<path d="M87.073 24.3064C87.038 20.2263 85.3831 16.3288 82.4722 13.4714C79.5614 10.614 75.7651 7.33985 71.6835 7.37905C67.602 7.41826 63.5695 10.7676 60.7082 13.6804C57.8468 16.5933 56.259 20.5219 56.294 24.6021L71.6835 24.4543L87.073 24.3064Z" fill="#FFDC99"/>
<path d="M114.94 60.889C118.74 60.893 122.387 59.3871 125.077 56.7025C127.767 54.0179 129.281 50.3746 129.285 46.5739C129.289 42.7733 127.783 39.1268 125.099 36.4365C122.414 33.7462 118.771 32.2325 114.97 32.2285L114.955 46.5587L114.94 60.889Z" fill="#FFE4AF"/>
<path d="M114.94 60.889C118.74 60.893 122.387 59.3871 125.077 56.7025C127.767 54.0179 129.281 50.3746 129.285 46.5739C129.289 42.7733 127.783 39.1268 125.099 36.4365C122.414 33.7462 118.771 32.2325 114.97 32.2285L114.955 46.5587L114.94 60.889Z" fill="#FFDC99"/>
<path d="M117.382 111.066C121.182 111.07 124.829 109.564 127.519 106.88C130.21 104.195 131.723 100.552 131.727 96.7511C131.731 92.9505 130.225 89.3039 127.541 86.6136C124.856 83.9233 121.213 82.4096 117.412 82.4056L117.397 96.7358L117.382 111.066Z" fill="#FFE4AF"/>
<path d="M117.382 111.066C121.182 111.07 124.829 109.564 127.519 106.88C130.21 104.195 131.723 100.552 131.727 96.7511C131.731 92.9505 130.225 89.3039 127.541 86.6136C124.856 83.9233 121.213 82.4096 117.412 82.4056L117.397 96.7358L117.382 111.066Z" fill="#FFDC99"/>
<path d="M116.167 87.0548C120.248 87.0612 124.162 85.4459 127.049 82.5642C129.936 79.6825 132.82 75.7463 132.822 71.6646C132.824 67.5828 129.944 63.6899 127.061 60.7991C124.177 57.9084 120.265 56.2807 116.184 56.2743L116.176 71.6645L116.167 87.0548Z" fill="#FFE4AF"/>
<path d="M116.167 87.0548C120.248 87.0612 124.162 85.4459 127.049 82.5642C129.936 79.6825 132.82 75.7463 132.822 71.6646C132.824 67.5828 129.944 63.6899 127.061 60.7991C124.177 57.9084 120.265 56.2807 116.184 56.2743L116.176 71.6645L116.167 87.0548Z" fill="#FFDC99"/>
<path d="M25.7173 82.419C21.9167 82.4314 18.2767 83.9531 15.5981 86.6494C12.9195 89.3456 11.4216 92.9955 11.4341 96.7961C11.4465 100.597 12.9682 104.237 15.6644 106.915C18.3607 109.594 22.0106 111.092 25.8112 111.079L25.7642 96.7491L25.7173 82.419Z" fill="#FFE4AF"/>
<path d="M25.7173 82.419C21.9167 82.4314 18.2767 83.9531 15.5981 86.6494C12.9195 89.3456 11.4216 92.9955 11.4341 96.7961C11.4465 100.597 12.9682 104.237 15.6644 106.915C18.3607 109.594 22.0106 111.092 25.8112 111.079L25.7642 96.7491L25.7173 82.419Z" fill="#FFDC99"/>
<path d="M26.0093 32.2427C22.2087 32.2551 18.5687 33.7769 15.8901 36.4731C13.2115 39.1693 11.7136 42.8192 11.7261 46.6198C11.7385 50.4204 13.2602 54.0604 15.9564 56.739C18.6527 59.4176 22.3025 60.9155 26.1031 60.903L26.0562 46.5729L26.0093 32.2427Z" fill="#FFE4AF"/>
<path d="M26.0093 32.2427C22.2087 32.2551 18.5687 33.7769 15.8901 36.4731C13.2115 39.1693 11.7136 42.8192 11.7261 46.6198C11.7385 50.4204 13.2602 54.0604 15.9564 56.739C18.6527 59.4176 22.3025 60.9155 26.1031 60.903L26.0562 46.5729L26.0093 32.2427Z" fill="#FFDC99"/>
<path d="M24.3762 56.2586C20.2959 56.2699 16.3888 57.9021 13.5145 60.7963C10.6402 63.6905 7.3636 67.567 7.37905 71.6487C7.39451 75.7304 10.7008 79.683 13.5969 82.5612C16.4931 85.4395 20.4124 87.0501 24.4927 87.0389L24.4345 71.6487L24.3762 56.2586Z" fill="#FFE4AF"/>
<path d="M24.3762 56.2586C20.2959 56.2699 16.3888 57.9021 13.5145 60.7963C10.6402 63.6905 7.3636 67.567 7.37905 71.6487C7.39451 75.7304 10.7008 79.683 13.5969 82.5612C16.4931 85.4395 20.4124 87.0501 24.4927 87.0389L24.4345 71.6487L24.3762 56.2586Z" fill="#FFDC99"/>
<path d="M82.4096 114.884C82.4121 118.684 83.9243 122.328 86.6135 125.014C89.3027 127.7 92.9487 129.207 96.7493 129.204C100.55 129.202 104.194 127.69 106.88 125C109.565 122.311 111.073 118.665 111.07 114.865L96.7398 114.874L82.4096 114.884Z" fill="#FFE4AF"/>
<path d="M82.4096 114.884C82.4121 118.684 83.9243 122.328 86.6135 125.014C89.3027 127.7 92.9487 129.207 96.7493 129.204C100.55 129.202 104.194 127.69 106.88 125C109.565 122.311 111.073 118.665 111.07 114.865L96.7398 114.874L82.4096 114.884Z" fill="#FFDC99"/>
<path d="M32.234 117.412C32.2365 121.213 33.7487 124.857 36.438 127.542C39.1272 130.228 42.7731 131.736 46.5737 131.733C50.3744 131.73 54.0183 130.218 56.704 127.529C59.3896 124.84 60.897 121.194 60.8945 117.393L46.5643 117.403L32.234 117.412Z" fill="#FFE4AF"/>
<path d="M32.234 117.412C32.2365 121.213 33.7487 124.857 36.438 127.542C39.1272 130.228 42.7731 131.736 46.5737 131.733C50.3744 131.73 54.0183 130.218 56.704 127.529C59.3896 124.84 60.897 121.194 60.8945 117.393L46.5643 117.403L32.234 117.412Z" fill="#FFDC99"/>
<path d="M56.2458 116.157C56.2464 120.237 57.8684 124.148 60.7551 127.03C63.6418 129.912 67.5543 134.303 71.636 134.298C75.7178 134.293 79.6344 129.893 82.5202 127.004C85.406 124.116 87.0268 120.201 87.0262 116.12L71.636 116.138L56.2458 116.157Z" fill="#FFE4AF"/>
<path d="M56.2458 116.157C56.2464 120.237 57.8684 124.148 60.7551 127.03C63.6418 129.912 67.5543 134.303 71.636 134.298C75.7178 134.293 79.6344 129.893 82.5202 127.004C85.406 124.116 87.0268 120.201 87.0262 116.12L71.636 116.138L56.2458 116.157Z" fill="#FFDC99"/>
<rect x="25.0886" y="25.0886" width="91.4996" height="91.4996" stroke="#FFCE6F" stroke-width="2.9516"/>
<circle cx="52.7464" cy="65.9331" r="12.3624" stroke="black" stroke-width="1.64832"/>
<circle cx="89.0096" cy="65.9331" r="12.3624" stroke="black" stroke-width="1.64832"/>
<circle cx="52.7464" cy="69.2296" r="3.29665" fill="black"/>
<circle cx="89.0095" cy="69.2296" r="3.29665" fill="black"/>
<path d="M70.0264 89.915C69.0772 90.4351 68.035 90.7632 66.959 90.8806C65.8831 90.998 64.7946 90.9022 63.7557 90.5989C62.7167 90.2956 61.7477 89.7906 60.904 89.1128C60.0602 88.435 59.3582 87.5976 58.838 86.6485C58.3179 85.6994 57.9897 84.6571 57.8724 83.5812" stroke="black" stroke-width="1.64832"/>
<path d="M72.3361 75.9659C72.886 77.0051 74.487 79.0074 74.169 80.0419C73.851 81.0764 70.5906 82.5073 69.9009 83.3414" stroke="black" stroke-width="1.64832"/>
<path d="M122.13 73.4904C125.909 76.8495 130.374 80.1095 135.128 81.7548C139.182 83.1582 143.632 83.2611 147.825 84.3093" stroke="black" stroke-width="3" stroke-linecap="round"/>
<path d="M14.6164 76.8712C10.0019 76.8712 7.12668 90.1722 6.53978 93.4002C5.69391 98.0524 4.99046 104.117 6.50221 108.652" stroke="black" stroke-width="3" stroke-linecap="round"/>
<path d="M38.2831 126.233C38.2831 131.648 37.4194 137.888 38.809 143.137C40.2032 148.404 42.8965 147.871 47.7497 147.871" stroke="black" stroke-width="3" stroke-linecap="round"/>
<path d="M99.8157 124.88C99.8157 129.319 98.925 133.491 101.994 136.901C104.401 139.575 108.006 139.756 111.311 139.756" stroke="black" stroke-width="3" stroke-linecap="round"/>
<path d="M147.815 83.5258C148.134 83.5258 149.215 83.7054 149.327 83.3127C149.494 82.7294 149.466 81.9921 148.773 81.9921C146.905 81.9921 149.744 84.5028 148.582 82.7589" stroke="black" stroke-width="5" stroke-linecap="round"/>
<path d="M4.79858 109.982C5.48126 109.982 6.33227 109.391 6.33227 108.64C6.33227 107.403 5.23524 108.613 4.79858 108.832" stroke="black" stroke-width="5" stroke-linecap="round"/>
</svg>
