<svg width="384" height="326" viewBox="0 0 384 326" fill="none" xmlns="http://www.w3.org/2000/svg">
<path d="M185.174 143.147H210.894" stroke="black" stroke-width="3.62398"/>
<path d="M300.606 95.6894C308.011 95.8357 315.294 93.7827 321.533 89.7901C327.771 85.7975 332.686 80.0445 335.655 73.2587C338.624 66.4729 339.514 58.9591 338.213 51.6673C336.912 44.3756 335.059 34.5511 329.926 29.2112C324.793 23.8713 316.61 23.2557 309.376 21.6674C302.141 20.0792 294.598 20.6719 287.7 23.3707C280.802 26.0695 274.86 30.7531 270.624 36.8293C266.388 42.9054 264.049 50.1012 263.903 57.5067L301.345 58.2465L300.606 95.6894Z" fill="#FFE4AF"/>
<path d="M300.606 95.6894C308.011 95.8357 315.294 93.7827 321.533 89.7901C327.771 85.7975 332.686 80.0445 335.655 73.2587C338.624 66.4729 339.514 58.9591 338.213 51.6673C336.912 44.3756 335.059 34.5511 329.926 29.2112C324.793 23.8713 316.61 23.2557 309.376 21.6674C302.141 20.0792 294.598 20.6719 287.7 23.3707C280.802 26.0695 274.86 30.7531 270.624 36.8293C266.388 42.9054 264.049 50.1012 263.903 57.5067L301.345 58.2465L300.606 95.6894Z" fill="#FFDC99"/>
<path d="M133.251 54.721C133.302 47.3142 131.155 40.0587 127.082 33.8719C123.01 27.685 117.194 22.8448 110.371 19.9633C103.547 17.0818 96.0224 16.2884 88.748 17.6834C81.4736 19.0784 71.6738 21.0579 66.4004 26.2593C61.127 31.4606 60.6168 39.6502 59.1219 46.9047C57.6269 54.1592 58.3167 61.6941 61.1041 68.5565C63.8915 75.419 68.6512 81.3008 74.7814 85.4581C80.9116 89.6155 88.1369 91.8617 95.5437 91.9126L95.8013 54.4633L133.251 54.721Z" fill="#FFE4AF"/>
<path d="M133.251 54.721C133.302 47.3142 131.155 40.0587 127.082 33.8719C123.01 27.685 117.194 22.8448 110.371 19.9633C103.547 17.0818 96.0224 16.2884 88.748 17.6834C81.4736 19.0784 71.6738 21.0579 66.4004 26.2593C61.127 31.4606 60.6168 39.6502 59.1219 46.9047C57.6269 54.1592 58.3167 61.6941 61.1041 68.5565C63.8915 75.419 68.6512 81.3008 74.7814 85.4581C80.9116 89.6155 88.1369 91.8617 95.5437 91.9126L95.8013 54.4633L133.251 54.721Z" fill="#FFDC99"/>
<path d="M95.7689 218.44C88.3641 218.617 81.178 220.986 75.1195 225.247C69.0609 229.508 64.4019 235.47 61.7317 242.378C59.0616 249.287 58.5 256.833 60.1182 264.061C61.7364 271.289 64.0165 281.023 69.3777 286.134C74.7388 291.245 82.9402 291.503 90.2373 292.774C97.5344 294.045 105.044 293.124 111.818 290.126C118.591 287.129 124.324 282.191 128.291 275.935C132.257 269.68 134.28 262.389 134.103 254.984L96.6637 255.879L95.7689 218.44Z" fill="#FFE4AF"/>
<path d="M95.7689 218.44C88.3641 218.617 81.178 220.986 75.1195 225.247C69.0609 229.508 64.4019 235.47 61.7317 242.378C59.0616 249.287 58.5 256.833 60.1182 264.061C61.7364 271.289 64.0165 281.023 69.3777 286.134C74.7388 291.245 82.9402 291.503 90.2373 292.774C97.5344 294.045 105.044 293.124 111.818 290.126C118.591 287.129 124.324 282.191 128.291 275.935C132.257 269.68 134.28 262.389 134.103 254.984L96.6637 255.879L95.7689 218.44Z" fill="#FFDC99"/>
<path d="M260.318 253.271C260.18 260.677 262.242 267.957 266.241 274.192C270.241 280.426 276 285.334 282.789 288.295C289.578 291.257 297.093 292.138 304.383 290.829C311.673 289.519 321.496 287.655 326.83 282.516C332.164 277.377 332.77 269.194 334.35 261.958C335.93 254.721 335.329 247.179 332.622 240.284C329.916 233.389 325.225 227.452 319.144 223.223C313.063 218.994 305.865 216.663 298.459 216.525L297.762 253.969L260.318 253.271Z" fill="#FFE4AF"/>
<path d="M260.318 253.271C260.18 260.677 262.242 267.957 266.241 274.192C270.241 280.426 276 285.334 282.789 288.295C289.578 291.257 297.093 292.138 304.383 290.829C311.673 289.519 321.496 287.655 326.83 282.516C332.164 277.377 332.77 269.194 334.35 261.958C335.93 254.721 335.329 247.179 332.622 240.284C329.916 233.389 325.225 227.452 319.144 223.223C313.063 218.994 305.865 216.663 298.459 216.525L297.762 253.969L260.318 253.271Z" fill="#FFDC99"/>
<path d="M175.94 56.7228C175.864 48.3671 172.471 40.3839 166.509 34.5293C160.547 28.6747 152.504 25.4283 144.148 25.5043C135.793 25.5803 127.809 28.9724 121.955 34.9344C116.1 40.8965 112.854 48.94 112.93 57.2957L144.435 57.0092L175.94 56.7228Z" fill="#FFE4AF"/>
<path d="M175.94 56.7228C175.864 48.3671 172.471 40.3839 166.509 34.5293C160.547 28.6747 152.504 25.4283 144.148 25.5043C135.793 25.5803 127.809 28.9724 121.955 34.9344C116.1 40.8965 112.854 48.94 112.93 57.2957L144.435 57.0092L175.94 56.7228Z" fill="#FFDC99"/>
<path d="M286.258 56.7228C286.182 48.3671 282.79 40.3839 276.828 34.5293C270.866 28.6747 262.822 25.4283 254.467 25.5043C246.111 25.5803 238.128 28.9724 232.273 34.9344C226.419 40.8965 223.172 48.94 223.248 57.2957L254.753 57.0092L286.258 56.7228Z" fill="#FFE4AF"/>
<path d="M286.258 56.7228C286.182 48.3671 282.79 40.3839 276.828 34.5293C270.866 28.6747 262.822 25.4283 254.467 25.5043C246.111 25.5803 238.128 28.9724 232.273 34.9344C226.419 40.8965 223.172 48.94 223.248 57.2957L254.753 57.0092L286.258 56.7228Z" fill="#FFDC99"/>
<path d="M233.437 53.4396C233.36 44.469 229.721 35.9 223.322 29.6178C216.922 23.3356 208.575 16.1372 199.602 16.2233C190.628 16.3095 181.763 23.6733 175.472 30.0775C169.181 36.4816 165.69 45.119 165.767 54.0896L199.602 53.7646L233.437 53.4396Z" fill="#FFE4AF"/>
<path d="M233.437 53.4396C233.36 44.469 229.721 35.9 223.322 29.6178C216.922 23.3356 208.575 16.1372 199.602 16.2233C190.628 16.3095 181.763 23.6733 175.472 30.0775C169.181 36.4816 165.69 45.119 165.767 54.0896L199.602 53.7646L233.437 53.4396Z" fill="#FFDC99"/>
<path d="M294.705 133.869C303.061 133.878 311.078 130.567 316.993 124.665C322.907 118.763 326.235 110.753 326.244 102.397C326.253 94.0406 322.942 86.0233 317.04 80.1085C311.138 74.1937 303.127 70.8658 294.771 70.8569L294.738 102.363L294.705 133.869Z" fill="#FFE4AF"/>
<path d="M294.705 133.869C303.061 133.878 311.078 130.567 316.993 124.665C322.907 118.763 326.235 110.753 326.244 102.397C326.253 94.0406 322.942 86.0233 317.04 80.1085C311.138 74.1937 303.127 70.8658 294.771 70.8569L294.738 102.363L294.705 133.869Z" fill="#FFDC99"/>
<path d="M300.073 244.188C308.429 244.197 316.447 240.886 322.361 234.984C328.276 229.081 331.604 221.071 331.613 212.715C331.622 204.359 328.311 196.342 322.409 190.427C316.507 184.512 308.496 181.184 300.14 181.175L300.107 212.682L300.073 244.188Z" fill="#FFE4AF"/>
<path d="M300.073 244.188C308.429 244.197 316.447 240.886 322.361 234.984C328.276 229.081 331.604 221.071 331.613 212.715C331.622 204.359 328.311 196.342 322.409 190.427C316.507 184.512 308.496 181.184 300.14 181.175L300.107 212.682L300.073 244.188Z" fill="#FFDC99"/>
<path d="M297.404 191.397C306.375 191.411 314.98 187.86 321.327 181.524C327.674 175.189 334.015 166.534 334.02 157.56C334.025 148.586 327.693 140.028 321.353 133.672C315.013 127.316 306.412 123.738 297.441 123.724L297.422 157.56L297.404 191.397Z" fill="#FFE4AF"/>
<path d="M297.404 191.397C306.375 191.411 314.98 187.86 321.327 181.524C327.674 175.189 334.015 166.534 334.02 157.56C334.025 148.586 327.693 140.028 321.353 133.672C315.013 127.316 306.412 123.738 297.441 123.724L297.422 157.56L297.404 191.397Z" fill="#FFDC99"/>
<path d="M98.5417 181.205C90.1857 181.232 82.1829 184.578 76.2937 190.506C70.4045 196.434 67.1114 204.458 67.1388 212.814C67.1661 221.17 70.5117 229.173 76.4396 235.062C82.3675 240.951 90.392 244.244 98.7479 244.217L98.6448 212.711L98.5417 181.205Z" fill="#FFE4AF"/>
<path d="M98.5417 181.205C90.1857 181.232 82.1829 184.578 76.2937 190.506C70.4045 196.434 67.1114 204.458 67.1388 212.814C67.1661 221.17 70.5117 229.173 76.4396 235.062C82.3675 240.951 90.392 244.244 98.7479 244.217L98.6448 212.711L98.5417 181.205Z" fill="#FFDC99"/>
<path d="M99.1836 70.8881C90.8277 70.9154 82.8249 74.261 76.9357 80.1889C71.0465 86.1168 67.7534 94.1413 67.7807 102.497C67.8081 110.853 71.1537 118.856 77.0816 124.745C83.0094 130.634 91.034 133.928 99.3899 133.9L99.2868 102.394L99.1836 70.8881Z" fill="#FFE4AF"/>
<path d="M99.1836 70.8881C90.8277 70.9154 82.8249 74.261 76.9357 80.1889C71.0465 86.1168 67.7534 94.1413 67.7807 102.497C67.8081 110.853 71.1537 118.856 77.0816 124.745C83.0094 130.634 91.034 133.928 99.3899 133.9L99.2868 102.394L99.1836 70.8881Z" fill="#FFDC99"/>
<path d="M95.5928 123.689C86.6219 123.714 78.032 127.303 71.7126 133.666C65.3933 140.029 58.1893 148.552 58.2233 157.526C58.2573 166.5 65.5264 175.19 71.8938 181.518C78.2612 187.846 86.8782 191.387 95.8491 191.362L95.721 157.526L95.5928 123.689Z" fill="#FFE4AF"/>
<path d="M95.5928 123.689C86.6219 123.714 78.032 127.303 71.7126 133.666C65.3933 140.029 58.1893 148.552 58.2233 157.526C58.2573 166.5 65.5264 175.19 71.8938 181.518C78.2612 187.846 86.8782 191.387 95.8491 191.362L95.721 157.526L95.5928 123.689Z" fill="#FFDC99"/>
<path d="M223.184 252.581C223.19 260.937 226.514 268.949 232.427 274.853C238.339 280.758 246.355 284.072 254.711 284.066C263.067 284.061 271.079 280.736 276.983 274.824C282.888 268.911 286.202 260.895 286.196 252.539L254.69 252.56L223.184 252.581Z" fill="#FFE4AF"/>
<path d="M223.184 252.581C223.19 260.937 226.514 268.949 232.427 274.853C238.339 280.758 246.355 284.072 254.711 284.066C263.067 284.061 271.079 280.736 276.983 274.824C282.888 268.911 286.202 260.895 286.196 252.539L254.69 252.56L223.184 252.581Z" fill="#FFDC99"/>
<path d="M112.869 258.14C112.875 266.496 116.2 274.508 122.112 280.413C128.024 286.317 136.04 289.631 144.396 289.626C152.752 289.62 160.764 286.296 166.669 280.383C172.573 274.471 175.887 266.455 175.882 258.099L144.376 258.12L112.869 258.14Z" fill="#FFE4AF"/>
<path d="M112.869 258.14C112.875 266.496 116.2 274.508 122.112 280.413C128.024 286.317 136.04 289.631 144.396 289.626C152.752 289.62 160.764 286.296 166.669 280.383C172.573 274.471 175.887 266.455 175.882 258.099L144.376 258.12L112.869 258.14Z" fill="#FFDC99"/>
<path d="M165.661 255.38C165.662 264.351 169.228 272.95 175.575 279.286C181.921 285.622 190.523 295.275 199.497 295.265C208.471 295.254 217.082 285.58 223.427 279.23C229.772 272.879 233.335 264.271 233.334 255.3L199.497 255.34L165.661 255.38Z" fill="#FFE4AF"/>
<path d="M165.661 255.38C165.662 264.351 169.228 272.95 175.575 279.286C181.921 285.622 190.523 295.275 199.497 295.265C208.471 295.254 217.082 285.58 223.427 279.23C229.772 272.879 233.335 264.271 233.334 255.3L199.497 255.34L165.661 255.38Z" fill="#FFDC99"/>
<rect x="97.1593" y="55.1595" width="201.169" height="201.169" stroke="#FFCE6F" stroke-width="6.48933"/>
<circle cx="157.967" cy="144.959" r="27.1798" stroke="black" stroke-width="3.62398"/>
<circle cx="237.695" cy="144.959" r="27.1798" stroke="black" stroke-width="3.62398"/>
<circle cx="157.967" cy="152.207" r="7.24795" fill="black"/>
<circle cx="237.695" cy="152.207" r="7.24795" fill="black"/>
<path d="M195.958 197.685C193.872 198.829 191.58 199.551 189.215 199.809C186.849 200.067 184.456 199.856 182.172 199.189C179.888 198.522 177.757 197.412 175.902 195.922C174.047 194.432 172.503 192.591 171.36 190.504C170.216 188.417 169.495 186.126 169.237 183.76" stroke="black" stroke-width="3.62398"/>
<path d="M201.037 167.017C202.246 169.302 205.765 173.704 205.066 175.979C204.367 178.253 197.199 181.399 195.683 183.233" stroke="black" stroke-width="3.62398"/>
<path d="M84.497 178.688C73.3216 178.688 66.8649 168.156 59.676 160.762C54.0682 154.994 46.3054 145.96 43.435 138.392C37.7817 123.488 26.6834 111.222 15.5496 100.088" stroke="black" stroke-width="5" stroke-linecap="round"/>
<path d="M316.161 166.278C323.222 165.572 330.003 157.487 334.853 153.024C343.513 145.057 346.395 136.401 350.021 125.522C353.656 114.618 355.394 102.528 359.521 91.9677C363.501 81.7823 367.881 71.7895 371.319 61.4775" stroke="black" stroke-width="5" stroke-linecap="round"/>
<path d="M134.139 275.215C134.139 287.574 134.139 299.934 134.139 312.293C134.139 320.877 134.111 319.27 140.957 321.409C143.413 322.177 145.326 323.478 147.929 323.478" stroke="black" stroke-width="5" stroke-linecap="round"/>
<path d="M245.834 271.078C245.834 283.065 243.076 294.953 243.076 306.931C243.076 316.064 249.393 315.204 256.866 315.204" stroke="black" stroke-width="5" stroke-linecap="round"/>
<path d="M370.553 62.5548C377.196 62.5548 372.377 72.2507 372.377 66.6592C372.377 61.1897 382.82 65.4687 377.394 68.4833C371.72 71.6358 371.895 59.9561 377.394 63.0108C384.883 67.1715 374.047 70.9057 373.34 68.4327C372.209 64.4722 377.811 61.3662 380.384 64.5816C384.2 69.3526 372.516 70.3752 372.377 68.0273C372.235 65.6049 372.406 62.5548 375.57 62.5548C376.853 62.5548 377.62 62.6594 378.762 63.2642C379.832 63.8306 379.529 65.59 378.965 65.0883C376.914 63.2655 376.731 62.5548 373.746 62.5548C371.145 62.5548 372.058 66.0433 370.553 65.291" stroke="black" stroke-width="5" stroke-linecap="round"/>
<path d="M14.8381 97.214C13.1851 97.214 5.46685 96.901 7.54143 99.4943C8.95712 101.264 13.4292 101.765 15.0408 100.153C16.8166 98.3772 15.4737 94.6219 12.6086 95.4405C11.6126 95.7251 6.808 98.9704 6.12262 98.4808C2.52685 95.9124 6.81599 99.1346 8.45352 99.0382C10.653 98.9088 12.6266 95.3899 8.90956 95.3899C7.52089 95.3899 0.772931 95.5127 4.09575 98.8355C6.32033 101.06 11.8856 96.302 5.71725 96.302" stroke="black" stroke-width="5" stroke-linecap="round"/>
</svg>
